<?xml version="1.0"?>
<svg xmlns="http://www.w3.org/2000/svg" xmlns:xlink="http://www.w3.org/1999/xlink" version="1.1" id="Layer_1" x="0px" y="0px" viewBox="0 0 508 508"
 style="enable-background:new 0 0 508 508;" xml:space="preserve" width="512px" height="512px" class="">
  <filter id="a" x="-16.5%" y="-10.5%" width="135%" height="135%">
      <feOffset result="offOut" in="SourceAlpha" dx="1" dy="1" />
      <feGaussianBlur result="blurOut" in="offOut" stdDeviation="10"/>
      <feBlend in="SourceGraphic" in2="blurOut" mode="normal"  values="0 0 0 0 0 0 0 0 0 0 0 0 0 0 0 0 0 0 0.2 0"/>
    </filter>
<g>

	
	<circle style="fill:#7CB342" cx="254" cy="254" r="225" stroke="white" stroke-width="20px" data-original="#84DBFF" class="" data-old_color="#02FF00" filter="url(#a)"/>
	<path style="fill:#FFFFFF;" d="M355.6,285.2c49.2,49.2,69.2,76.8,64.4,81.2c-4.8,4.8-32.4-15.6-81.2-64.4  c-48.8-49.2-100.8-108.4-96-113.2C247.2,184,306.8,236,355.6,285.2z" data-original="#FFFFFF" class=""/>
	<path style="fill:#F9F9F9" d="M263.6,200l-9.6,9.6c-4,4-4,10.8,0,14.8l0,0c4,4,10.8,4,14.8,0l9.6-9.6c4-4,4-10.8,0-14.8l0,0  C274,196,267.6,196,263.6,200z" data-original="#2B3B4E" class="" data-old_color="#7CB342"/><g>
	<path style="fill:#FFFFFF" d="M218,246.4l-66.8-66.8c-4-4-4-10.4,0-14l68.4-68.4c4-4,10.4-4,14,0l66.8,66.8c4,4,4,10.4,0,14   L232,246.4C228,250.4,221.6,250.4,218,246.4z" data-original="#324A5E" class="" data-old_color="#FCFDFD"/>
	<path style="fill:#FFFFFF" d="M310,154.8l-67.6-67.6c-3.6-3.6-3.6-9.6,0-13.2l0,0c3.6-3.6,9.6-3.6,13.2,0l67.6,67.6   c3.6,3.6,3.6,9.6,0,13.2l0,0C320,158.4,314,158.4,310,154.8z" data-original="#324A5E" class="" data-old_color="#FCFDFD"/>
</g>
	<rect x="264.645" y="78.86" transform="matrix(-0.7071 0.7071 -0.7071 -0.7071 552.2394 22.5738)" style="fill:#FCFCFB" width="13.6" height="93.599" data-original="#FFD05B" class="" data-old_color="#FBF9F4"/>
	<path style="fill:#FFFFFF" d="M141.2,188.8l67.6,67.6c3.6,3.6,3.6,9.6,0,13.2l0,0c-3.6,3.6-9.6,3.6-13.2,0l-68-67.6  c-3.6-3.6-3.6-9.6,0-13.2l0,0C131.6,185.2,137.6,185.2,141.2,188.8z" data-original="#324A5E" class="" data-old_color="#FCFDFD"/>
	
	<g>
	
		<rect x="173.032" y="170.971" transform="matrix(0.7071 -0.7071 0.7071 0.7071 -101.3154 190.9435)" style="fill:#FCFCFB" width="13.6" height="93.599" data-original="#FFD05B" class="" data-old_color="#FBF9F4"/>
		<path style="fill:#FCFCFB" d="M247.2,376.8h-118v-11.2c0-4.4,3.6-7.6,7.6-7.6h102.4c4.4,0,7.6,3.6,7.6,7.6v11.2H247.2z" data-original="#FFD05B" class="" data-old_color="#FBF9F4"/>
</g>
<path style="fill:#FCFBFB" d="M266,431.6H110v-38c0-11.6,9.2-20.8,20.8-20.8h114c11.6,0,20.8,9.2,20.8,20.8v38H266z" data-original="#F9B54C" class="" data-old_color="#FBF9F7"/>
</g> 

</svg>
