<?xml version="1.0"?>
<svg xmlns="http://www.w3.org/2000/svg" xmlns:xlink="http://www.w3.org/1999/xlink" version="1.1" id="Layer_1" x="0px" y="0px" viewBox="0 0 508 508" 
style="enable-background:new 0 0 508 508;" xml:space="preserve" width="512px" height="512px" class="">
	 <filter id="a" x="-16.5%" y="-10.5%" width="135%" height="135%">
      <feOffset result="offOut" in="SourceAlpha" dx="1" dy="1" />
      <feGaussianBlur result="blurOut" in="offOut" stdDeviation="10"/>
      <feBlend in="SourceGraphic" in2="blurOut" mode="normal"  values="0 0 0 0 0 0 0 0 0 0 0 0 0 0 0 0 0 0 0.2 0"/>
    </filter>
	<g>
		<circle style="fill:#407EB9" cx="254" cy="254" r="225"  stroke="white" stroke-width="20px" data-original="#FFFFFF" class="active-path" data-old_color="##407EB" filter="url(#a)"/>
	<g>
		<path style="fill:#FFFFFF;" d="M216.4,353.6c0.8,0.4,1.6,0.4,2,0.8C218,354,217.2,354,216.4,353.6L216.4,353.6z" data-original="#FFFFFF" class=""/>
		<path style="fill:#FFFFFF;" d="M279.6,313.6c-2,13.2-5.2,28.8-10.4,45.6c-4.8,0.8-9.6,1.2-14.8,1.2c-6.8,0-13.6-0.8-20-2   c1.6,0.4,3.2,0.4,5.2,0.8c-5.2-16.8-8.8-32.4-10.4-45.6c6-18.4,25.6-20,25.6-20S273.6,295.2,279.6,313.6z" data-original="#FFFFFF" class=""/>
		<path style="fill:#FFFFFF;" d="M268.8,359.2L268.8,359.2c0.8,0,1.6-0.4,2.4-0.4C270.4,359.2,269.6,359.2,268.8,359.2z" data-original="#FFFFFF" class=""/>
	</g>
		<path style="fill:#FFFFFF;" d="M277.2,264.4c0,0,3.2,16.4-23.2,29.2l0,0c-26.4-12.8-23.2-29.2-23.2-29.2l0,0c0-0.4,0-0.4,0-0.8  c6.4,8,14.8,13.2,23.2,13.2c8.8,0,16.8-5.2,23.2-13.2C277.6,264,277.6,264,277.2,264.4C277.6,264.4,277.6,264.4,277.2,264.4z" data-original="#FFFFFF" class=""/>
	<g>
		<path style="fill:#FFFFFF;" d="M254,293.6L254,293.6L254,293.6L254,293.6z" data-original="#FFFFFF" class=""/>
		<path style="fill:#FFFFFFF1543F;" d="M263.2,296.4l-3.2,8.8h-12.4l-3.2-8.8c5.6-2.4,9.6-2.8,9.6-2.8S258.4,294,263.2,296.4z" data-original="#FFFFFF" class=""/>
	</g>
	<path style="fill:#FFFFFF;" d="M268,359.6c-4.4,0.4-9.2,0.8-14,0.8c-4.8,0-9.2-0.4-14-0.8l7.6-54H260L268,359.6z" data-original="#FFFFFF"/><g>
	<path style="fill:#FFFFFF;" d="M337.2,320.4c-16.4,20.8-40.8,35.2-68.4,39.2c5.2-16.8,8.8-32.4,10.4-45.6l0,0   c0,0.4,6.8-24.4,3.2-40l46.8,22.4L337.2,320.4z" data-original="#FFFFFF"/>
	<path style="fill:#FFFFFF;" d="M239.2,359.2c-27.6-4-52-18.4-68.4-39.2l7.6-24l46.8-22c-3.6,15.6,3.2,40.4,3.2,40   C230.4,327.2,233.6,342.4,239.2,359.2z" data-original="#FFFFFF"/>
	<polygon style="fill:#FFFFFF;" points="225.2,274 225.2,274 216.4,278  " data-original="#FFFFFF"/>
	</g><g>
	<path style="fill:#FFFFFF;" d="M277.6,264.4c0,0,3.2,16.8-23.6,29.6c0,0,19.6,1.6,25.6,20C279.6,314.4,290.4,274,277.6,264.4z" data-original="#FFFFFF" class=""/>
	<path style="fill:#FFFFFF;" d="M230.4,264.4c0,0-3.2,16.8,23.6,29.6c0,0-19.6,1.6-25.6,20C228.4,314.4,217.6,274,230.4,264.4z" data-original="#FFFFFF" class=""/>
</g><path style="fill:#FFFFFF" d="M284,245.6c-3.2,10-4.4,15.6-4.4,15.6c-6.8,9.2-15.6,15.6-25.2,15.6c-9.2,0-17.6-5.6-24-14l0,0  c-14.4-17.6-4.4-50.4-4.4-50.4c7.2,8,30.4,8.8,30.4,8.8c-9.6-1.6-11.6-8.8-11.6-9.6c2,4.8,24,8,24,8  C291.6,222.8,284,245.6,284,245.6z" data-original="#FFFFFF" class=""/>
<path style="fill:#FFFFFF;" d="M240.4,178.4c0,0,31.6-12.8,47.6,16c17.2,30.8-4.4,63.6-8.8,66.4c0,0,1.2-5.2,4.4-15.6  c0,0,7.6-22.8-15.6-26c0,0-22.4-3.2-24-8c0,0,1.6,8,11.6,10c0,0-23.2-0.4-30.4-8.8c0,0-10,32.4,4.4,50.4c0,0-24.8-20-22-50.8  C208,212,206.8,170,240.4,178.4z" data-original="#FFFFFF"/>
<path style="fill:#FFFFFF;" d="M452.4,275.2v-42.4L400.8,218c-3.6-15.2-9.6-29.2-17.6-42l26-47.2l-30-30l-47.2,26  c-12.8-8-27.2-13.6-42-17.6l-14.8-51.6h-42.4L218,107.2c-15.2,3.6-29.2,9.6-42,17.6l-47.2-26l-30,30l26,47.2  c-8,12.8-13.6,27.2-17.6,42l-51.6,14.8v42.4l51.6,14.8c3.6,15.2,9.6,29.2,17.6,42l-26,47.2l30,30l47.2-26c12.8,8,27.2,13.6,42,17.6  l14.8,51.6h42.4l14.8-51.6c15.2-3.6,29.2-9.6,42-17.6l47.2,26l30-30l-26-47.2c8-12.8,13.6-27.2,17.6-42L452.4,275.2z M254,360.4  c-58.8,0-106.4-47.6-106.4-106.4S195.2,147.6,254,147.6S360.4,195.2,360.4,254S312.8,360.4,254,360.4z" data-original="#FFFFFF" class=""/></g> </svg>
